<svg width="104" height="26" viewBox="0 0 104 26" fill="none" xmlns="http://www.w3.org/2000/svg">
<path d="M0 24.8041V0.854004H5.81645V24.8041H0ZM2.70294 15.6346V10.7762H15.0886V15.6346H2.70294ZM2.70294 5.98617V0.854004H16.4913V5.98617H2.70294Z" fill="#1C1C1C"/>
<path d="M17.5306 24.8041V6.63624H22.7312L22.9707 12.5553L21.9443 11.4263C22.218 10.4454 22.6628 9.56727 23.2786 8.79175C23.9173 8.01622 24.6586 7.40036 25.5026 6.94417C26.3465 6.48798 27.2475 6.25988 28.2055 6.25988C28.6161 6.25988 28.9924 6.29409 29.3346 6.36252C29.6995 6.43095 30.0303 6.51079 30.3268 6.60203L28.8214 12.658C28.5705 12.4983 28.2283 12.3729 27.7949 12.2816C27.3844 12.1676 26.951 12.1105 26.4948 12.1105C25.993 12.1105 25.5254 12.2018 25.092 12.3843C24.6586 12.5439 24.2937 12.7834 23.9971 13.1028C23.7006 13.4221 23.4611 13.7985 23.2786 14.2318C23.119 14.6652 23.0391 15.1556 23.0391 15.7031V24.8041H17.5306Z" fill="#1C1C1C"/>
<path d="M38.1488 25.1462C36.2556 25.1462 34.5677 24.7357 33.0851 23.9145C31.6252 23.0934 30.462 21.9757 29.5952 20.5615C28.7512 19.1473 28.3293 17.5278 28.3293 15.7031C28.3293 13.8783 28.7512 12.2588 29.5952 10.8446C30.462 9.43041 31.6252 8.31274 33.0851 7.4916C34.5677 6.67045 36.2556 6.25988 38.1488 6.25988C40.042 6.25988 41.7185 6.67045 43.1783 7.4916C44.6609 8.31274 45.8242 9.43041 46.6682 10.8446C47.5121 12.2588 47.9341 13.8783 47.9341 15.7031C47.9341 17.5278 47.5121 19.1473 46.6682 20.5615C45.8242 21.9757 44.6609 23.0934 43.1783 23.9145C41.7185 24.7357 40.042 25.1462 38.1488 25.1462ZM38.1488 20.4246C38.9699 20.4246 39.6999 20.2194 40.3385 19.8088C40.9772 19.3982 41.479 18.8394 41.844 18.1323C42.2089 17.4252 42.38 16.6154 42.3572 15.7031C42.38 14.7907 42.2089 13.9809 41.844 13.2738C41.479 12.5439 40.9772 11.9737 40.3385 11.5631C39.6999 11.1525 38.9699 10.9473 38.1488 10.9473C37.3276 10.9473 36.5863 11.1525 35.9249 11.5631C35.2862 11.9737 34.7844 12.5439 34.4194 13.2738C34.0545 13.9809 33.8834 14.7907 33.9062 15.7031C33.8834 16.6154 34.0545 17.4252 34.4194 18.1323C34.7844 18.8394 35.2862 19.3982 35.9249 19.8088C36.5863 20.2194 37.3276 20.4246 38.1488 20.4246Z" fill="#1C1C1C"/>
<path d="M48.7766 24.8041V6.63624H53.9772L54.1483 10.3314L53.0534 10.742C53.3044 9.92082 53.7491 9.17951 54.3878 8.51803C55.0493 7.83374 55.8362 7.28631 56.7486 6.87574C57.661 6.46517 58.619 6.25988 59.6226 6.25988C60.9912 6.25988 62.1431 6.545 63.0783 7.11524C64.0135 7.66267 64.7206 8.49522 65.1996 9.61289C65.6786 10.7078 65.9181 12.0535 65.9181 13.6502V24.8041H60.4095V14.095C60.4095 13.3651 60.3069 12.7606 60.1016 12.2816C59.8963 11.8026 59.577 11.4491 59.1436 11.221C58.733 10.9701 58.2198 10.856 57.604 10.8788C57.125 10.8788 56.6802 10.9587 56.2696 11.1183C55.859 11.2552 55.5055 11.4719 55.209 11.7684C54.9124 12.0421 54.6729 12.3615 54.4905 12.7264C54.3308 13.0914 54.2509 13.4905 54.2509 13.9239V24.8041H51.548C50.9093 24.8041 50.3619 24.8041 49.9057 24.8041C49.4495 24.8041 49.0732 24.8041 48.7766 24.8041Z" fill="#1C1C1C"/>
<path d="M69.263 24.8041V2.05151H74.7374V24.8041H69.263ZM66.0469 11.4263V6.63624H78.2614V11.4263H66.0469Z" fill="#1C1C1C"/>
<path d="M96.3954 25.0776L94.0003 22.6142L91.9475 20.6981L86.918 15.3607C86.0284 14.4027 85.2757 13.5359 84.6598 12.7604C84.044 11.9621 83.5535 11.2322 83.1886 10.5707C82.8464 9.8864 82.5955 9.24773 82.4359 8.65468C82.2762 8.06163 82.1964 7.5142 82.1964 7.01239C82.1964 5.78067 82.5157 4.68581 83.1544 3.7278C83.8159 2.74699 84.7168 1.98287 85.8573 1.43544C87.0206 0.865198 88.355 0.580078 89.8604 0.580078C91.0237 0.580078 92.1071 0.773959 93.1108 1.16172C94.1144 1.52668 94.9812 2.0513 95.7111 2.73558C96.441 3.41987 96.9542 4.21821 97.2507 5.13059L92.9397 7.69667C92.5519 6.76148 92.13 6.12281 91.6738 5.78067C91.2176 5.43852 90.6815 5.26745 90.0657 5.26745C89.5639 5.26745 89.1419 5.34728 88.7998 5.50695C88.4576 5.66662 88.1953 5.90612 88.0128 6.22546C87.8303 6.52198 87.7391 6.89834 87.7391 7.35453C87.7391 7.78791 87.9102 8.32394 88.2523 8.96261C88.6173 9.57847 89.0735 10.2285 89.6209 10.9128C90.1683 11.5743 90.7272 12.213 91.2974 12.8288C91.8676 13.4219 92.3809 13.9351 92.8371 14.3685L95.3689 17.1399L97.7297 19.2954L103.17 25.0776H96.3954ZM87.7391 25.4197C85.9372 25.4197 84.3177 25.0776 82.8807 24.3933C81.4665 23.709 80.3374 22.7738 79.4934 21.5877C78.6723 20.4016 78.2617 19.0787 78.2617 17.6189C78.2617 15.9538 78.7407 14.4597 79.6987 13.1368C80.6795 11.791 82.1165 10.776 84.0097 10.0917L87.4312 13.4105C86.1538 13.6842 85.1958 14.1404 84.5572 14.7791C83.9185 15.4177 83.5992 16.2275 83.5992 17.2083C83.5992 17.9838 83.7816 18.6567 84.1466 19.2269C84.5116 19.7972 85.0476 20.242 85.7547 20.5613C86.4618 20.8578 87.3057 21.0061 88.2865 21.0061C89.1989 21.0061 90.0429 20.8236 90.8184 20.4586C91.6167 20.0709 92.3238 19.5349 92.9397 18.8506C93.5784 18.1663 94.0916 17.3565 94.4793 16.4213C94.8671 15.4633 95.1294 14.4027 95.2663 13.2394H100.364C100.159 14.6992 99.8054 16.0564 99.3036 17.3109C98.8018 18.5426 98.1631 19.6603 97.3876 20.6639C96.6349 21.6676 95.7567 22.5229 94.7531 23.23C93.7722 23.9371 92.6888 24.4845 91.5027 24.8723C90.3394 25.2373 89.0849 25.4197 87.7391 25.4197Z" fill="#C6B9F9"/>
</svg>
